<mxfile host="Electron" agent="Mozilla/5.0 (Windows NT 10.0; Win64; x64) AppleWebKit/537.36 (KHTML, like Gecko) draw.io/26.1.1 Chrome/132.0.6834.210 Electron/34.3.3 Safari/537.36" version="26.1.1">
  <diagram name="Page-1" id="WeQCRHZSvIsE5rwSqj0e">
    <mxGraphModel dx="1437" dy="560" grid="1" gridSize="10" guides="1" tooltips="1" connect="1" arrows="1" fold="1" page="1" pageScale="1" pageWidth="570" pageHeight="940" math="0" shadow="0">
      <root>
        <mxCell id="0" />
        <mxCell id="1" parent="0" />
        <mxCell id="X40UiIsb3C-yy5kFWT---1" value="&lt;p style=&quot;margin:0px;margin-top:4px;text-align:center;&quot;&gt;&lt;i&gt;&amp;lt;&amp;lt;Abstract&amp;gt;&amp;gt;&lt;/i&gt;&lt;br&gt;&lt;b&gt;+ Strategy&lt;/b&gt;&lt;/p&gt;&lt;hr size=&quot;1&quot; style=&quot;border-style:solid;&quot;&gt;&lt;p style=&quot;margin:0px;margin-left:4px;&quot;&gt;&lt;br&gt;&lt;/p&gt;&lt;hr size=&quot;1&quot; style=&quot;border-style:solid;&quot;&gt;&lt;p style=&quot;margin:0px;margin-left:4px;&quot;&gt;+ compute()&lt;br&gt;&lt;/p&gt;" style="verticalAlign=top;align=left;overflow=fill;html=1;whiteSpace=wrap;fillColor=none;" vertex="1" parent="1">
          <mxGeometry x="630" y="176" width="140" height="90" as="geometry" />
        </mxCell>
        <mxCell id="X40UiIsb3C-yy5kFWT---2" value="+ SpeedContext" style="swimlane;fontStyle=1;align=center;verticalAlign=top;childLayout=stackLayout;horizontal=1;startSize=26;horizontalStack=0;resizeParent=1;resizeParentMax=0;resizeLast=0;collapsible=1;marginBottom=0;whiteSpace=wrap;html=1;fillColor=none;" vertex="1" parent="1">
          <mxGeometry x="125" y="178" width="160" height="86" as="geometry" />
        </mxCell>
        <mxCell id="X40UiIsb3C-yy5kFWT---3" value="- S: Strategy" style="text;strokeColor=none;fillColor=none;align=left;verticalAlign=top;spacingLeft=4;spacingRight=4;overflow=hidden;rotatable=0;points=[[0,0.5],[1,0.5]];portConstraint=eastwest;whiteSpace=wrap;html=1;" vertex="1" parent="X40UiIsb3C-yy5kFWT---2">
          <mxGeometry y="26" width="160" height="26" as="geometry" />
        </mxCell>
        <mxCell id="X40UiIsb3C-yy5kFWT---4" value="" style="line;strokeWidth=1;fillColor=none;align=left;verticalAlign=middle;spacingTop=-1;spacingLeft=3;spacingRight=3;rotatable=0;labelPosition=right;points=[];portConstraint=eastwest;strokeColor=inherit;" vertex="1" parent="X40UiIsb3C-yy5kFWT---2">
          <mxGeometry y="52" width="160" height="8" as="geometry" />
        </mxCell>
        <mxCell id="X40UiIsb3C-yy5kFWT---5" value="+ Launch()" style="text;strokeColor=none;fillColor=none;align=left;verticalAlign=top;spacingLeft=4;spacingRight=4;overflow=hidden;rotatable=0;points=[[0,0.5],[1,0.5]];portConstraint=eastwest;whiteSpace=wrap;html=1;" vertex="1" parent="X40UiIsb3C-yy5kFWT---2">
          <mxGeometry y="60" width="160" height="26" as="geometry" />
        </mxCell>
        <mxCell id="X40UiIsb3C-yy5kFWT---6" value="+ Client" style="swimlane;fontStyle=1;align=center;verticalAlign=top;childLayout=stackLayout;horizontal=1;startSize=26;horizontalStack=0;resizeParent=1;resizeParentMax=0;resizeLast=0;collapsible=1;marginBottom=0;whiteSpace=wrap;html=1;fillColor=none;" vertex="1" parent="1">
          <mxGeometry x="-120" y="191" width="160" height="60" as="geometry" />
        </mxCell>
        <mxCell id="X40UiIsb3C-yy5kFWT---7" value="" style="line;strokeWidth=1;fillColor=none;align=left;verticalAlign=middle;spacingTop=-1;spacingLeft=3;spacingRight=3;rotatable=0;labelPosition=right;points=[];portConstraint=eastwest;strokeColor=inherit;" vertex="1" parent="X40UiIsb3C-yy5kFWT---6">
          <mxGeometry y="26" width="160" height="8" as="geometry" />
        </mxCell>
        <mxCell id="X40UiIsb3C-yy5kFWT---8" value="&amp;nbsp;" style="text;strokeColor=none;fillColor=none;align=left;verticalAlign=top;spacingLeft=4;spacingRight=4;overflow=hidden;rotatable=0;points=[[0,0.5],[1,0.5]];portConstraint=eastwest;whiteSpace=wrap;html=1;" vertex="1" parent="X40UiIsb3C-yy5kFWT---6">
          <mxGeometry y="34" width="160" height="26" as="geometry" />
        </mxCell>
        <mxCell id="X40UiIsb3C-yy5kFWT---9" value="+ Gravity" style="swimlane;fontStyle=1;align=center;verticalAlign=top;childLayout=stackLayout;horizontal=1;startSize=26;horizontalStack=0;resizeParent=1;resizeParentMax=0;resizeLast=0;collapsible=1;marginBottom=0;whiteSpace=wrap;html=1;fillColor=none;" vertex="1" parent="1">
          <mxGeometry x="285" y="360" width="160" height="60" as="geometry" />
        </mxCell>
        <mxCell id="X40UiIsb3C-yy5kFWT---10" value="" style="line;strokeWidth=1;fillColor=none;align=left;verticalAlign=middle;spacingTop=-1;spacingLeft=3;spacingRight=3;rotatable=0;labelPosition=right;points=[];portConstraint=eastwest;strokeColor=inherit;" vertex="1" parent="X40UiIsb3C-yy5kFWT---9">
          <mxGeometry y="26" width="160" height="8" as="geometry" />
        </mxCell>
        <mxCell id="X40UiIsb3C-yy5kFWT---11" value="+ compute()" style="text;strokeColor=none;fillColor=none;align=left;verticalAlign=top;spacingLeft=4;spacingRight=4;overflow=hidden;rotatable=0;points=[[0,0.5],[1,0.5]];portConstraint=eastwest;whiteSpace=wrap;html=1;" vertex="1" parent="X40UiIsb3C-yy5kFWT---9">
          <mxGeometry y="34" width="160" height="26" as="geometry" />
        </mxCell>
        <mxCell id="X40UiIsb3C-yy5kFWT---12" value="+ Friction" style="swimlane;fontStyle=1;align=center;verticalAlign=top;childLayout=stackLayout;horizontal=1;startSize=26;horizontalStack=0;resizeParent=1;resizeParentMax=0;resizeLast=0;collapsible=1;marginBottom=0;whiteSpace=wrap;html=1;fillColor=none;" vertex="1" parent="1">
          <mxGeometry x="490" y="360" width="160" height="60" as="geometry" />
        </mxCell>
        <mxCell id="X40UiIsb3C-yy5kFWT---13" value="" style="line;strokeWidth=1;fillColor=none;align=left;verticalAlign=middle;spacingTop=-1;spacingLeft=3;spacingRight=3;rotatable=0;labelPosition=right;points=[];portConstraint=eastwest;strokeColor=inherit;" vertex="1" parent="X40UiIsb3C-yy5kFWT---12">
          <mxGeometry y="26" width="160" height="8" as="geometry" />
        </mxCell>
        <mxCell id="X40UiIsb3C-yy5kFWT---14" value="+ compute()" style="text;strokeColor=none;fillColor=none;align=left;verticalAlign=top;spacingLeft=4;spacingRight=4;overflow=hidden;rotatable=0;points=[[0,0.5],[1,0.5]];portConstraint=eastwest;whiteSpace=wrap;html=1;" vertex="1" parent="X40UiIsb3C-yy5kFWT---12">
          <mxGeometry y="34" width="160" height="26" as="geometry" />
        </mxCell>
        <mxCell id="X40UiIsb3C-yy5kFWT---15" value="+ None" style="swimlane;fontStyle=1;align=center;verticalAlign=top;childLayout=stackLayout;horizontal=1;startSize=26;horizontalStack=0;resizeParent=1;resizeParentMax=0;resizeLast=0;collapsible=1;marginBottom=0;whiteSpace=wrap;html=1;fillColor=none;" vertex="1" parent="1">
          <mxGeometry x="890" y="350" width="160" height="60" as="geometry" />
        </mxCell>
        <mxCell id="X40UiIsb3C-yy5kFWT---16" value="" style="line;strokeWidth=1;fillColor=none;align=left;verticalAlign=middle;spacingTop=-1;spacingLeft=3;spacingRight=3;rotatable=0;labelPosition=right;points=[];portConstraint=eastwest;strokeColor=inherit;" vertex="1" parent="X40UiIsb3C-yy5kFWT---15">
          <mxGeometry y="26" width="160" height="8" as="geometry" />
        </mxCell>
        <mxCell id="X40UiIsb3C-yy5kFWT---17" value="+ compute()" style="text;strokeColor=none;fillColor=none;align=left;verticalAlign=top;spacingLeft=4;spacingRight=4;overflow=hidden;rotatable=0;points=[[0,0.5],[1,0.5]];portConstraint=eastwest;whiteSpace=wrap;html=1;" vertex="1" parent="X40UiIsb3C-yy5kFWT---15">
          <mxGeometry y="34" width="160" height="26" as="geometry" />
        </mxCell>
        <mxCell id="X40UiIsb3C-yy5kFWT---19" value="" style="endArrow=block;endSize=16;endFill=0;html=1;rounded=0;entryX=0;entryY=1;entryDx=0;entryDy=0;exitX=0.5;exitY=0;exitDx=0;exitDy=0;" edge="1" parent="1" source="X40UiIsb3C-yy5kFWT---9" target="X40UiIsb3C-yy5kFWT---1">
          <mxGeometry width="160" relative="1" as="geometry">
            <mxPoint x="170" y="286" as="sourcePoint" />
            <mxPoint x="170" y="170" as="targetPoint" />
          </mxGeometry>
        </mxCell>
        <mxCell id="X40UiIsb3C-yy5kFWT---20" value="" style="endArrow=block;endSize=16;endFill=0;html=1;rounded=0;entryX=0.25;entryY=1;entryDx=0;entryDy=0;exitX=0.5;exitY=0;exitDx=0;exitDy=0;" edge="1" parent="1" source="X40UiIsb3C-yy5kFWT---12" target="X40UiIsb3C-yy5kFWT---1">
          <mxGeometry width="160" relative="1" as="geometry">
            <mxPoint x="375" y="370" as="sourcePoint" />
            <mxPoint x="545" y="276" as="targetPoint" />
          </mxGeometry>
        </mxCell>
        <mxCell id="X40UiIsb3C-yy5kFWT---21" value="" style="endArrow=block;endSize=16;endFill=0;html=1;rounded=0;entryX=1;entryY=1;entryDx=0;entryDy=0;exitX=0.5;exitY=0;exitDx=0;exitDy=0;" edge="1" parent="1" source="X40UiIsb3C-yy5kFWT---15" target="X40UiIsb3C-yy5kFWT---1">
          <mxGeometry width="160" relative="1" as="geometry">
            <mxPoint x="580" y="370" as="sourcePoint" />
            <mxPoint x="580" y="276" as="targetPoint" />
          </mxGeometry>
        </mxCell>
        <mxCell id="X40UiIsb3C-yy5kFWT---22" value="" style="endArrow=diamondThin;endSize=24;endFill=0;html=1;rounded=0;entryX=1.004;entryY=0.99;entryDx=0;entryDy=0;exitX=0.005;exitY=0.611;exitDx=0;exitDy=0;entryPerimeter=0;exitPerimeter=0;" edge="1" parent="1" source="X40UiIsb3C-yy5kFWT---1" target="X40UiIsb3C-yy5kFWT---3">
          <mxGeometry width="160" relative="1" as="geometry">
            <mxPoint x="375" y="370" as="sourcePoint" />
            <mxPoint x="510" y="276" as="targetPoint" />
          </mxGeometry>
        </mxCell>
        <mxCell id="X40UiIsb3C-yy5kFWT---23" value="" style="endArrow=none;html=1;rounded=0;bendable=0;exitX=1.003;exitY=0.265;exitDx=0;exitDy=0;endFill=0;exitPerimeter=0;startFill=0;" edge="1" parent="1" source="X40UiIsb3C-yy5kFWT---8">
          <mxGeometry width="50" height="50" relative="1" as="geometry">
            <mxPoint x="1.1368683772161603e-13" y="280" as="sourcePoint" />
            <mxPoint x="125" y="232" as="targetPoint" />
          </mxGeometry>
        </mxCell>
        <mxCell id="X40UiIsb3C-yy5kFWT---47" value="+ Gravity_Friction" style="swimlane;fontStyle=1;align=center;verticalAlign=top;childLayout=stackLayout;horizontal=1;startSize=26;horizontalStack=0;resizeParent=1;resizeParentMax=0;resizeLast=0;collapsible=1;marginBottom=0;whiteSpace=wrap;html=1;fillColor=none;" vertex="1" parent="1">
          <mxGeometry x="690" y="360" width="160" height="60" as="geometry" />
        </mxCell>
        <mxCell id="X40UiIsb3C-yy5kFWT---48" value="" style="line;strokeWidth=1;fillColor=none;align=left;verticalAlign=middle;spacingTop=-1;spacingLeft=3;spacingRight=3;rotatable=0;labelPosition=right;points=[];portConstraint=eastwest;strokeColor=inherit;" vertex="1" parent="X40UiIsb3C-yy5kFWT---47">
          <mxGeometry y="26" width="160" height="8" as="geometry" />
        </mxCell>
        <mxCell id="X40UiIsb3C-yy5kFWT---49" value="+ compute()" style="text;strokeColor=none;fillColor=none;align=left;verticalAlign=top;spacingLeft=4;spacingRight=4;overflow=hidden;rotatable=0;points=[[0,0.5],[1,0.5]];portConstraint=eastwest;whiteSpace=wrap;html=1;" vertex="1" parent="X40UiIsb3C-yy5kFWT---47">
          <mxGeometry y="34" width="160" height="26" as="geometry" />
        </mxCell>
        <mxCell id="X40UiIsb3C-yy5kFWT---50" value="" style="endArrow=block;endSize=16;endFill=0;html=1;rounded=0;entryX=0.75;entryY=1;entryDx=0;entryDy=0;exitX=0.5;exitY=0;exitDx=0;exitDy=0;" edge="1" parent="1" source="X40UiIsb3C-yy5kFWT---47" target="X40UiIsb3C-yy5kFWT---1">
          <mxGeometry width="160" relative="1" as="geometry">
            <mxPoint x="580" y="370" as="sourcePoint" />
            <mxPoint x="675" y="276" as="targetPoint" />
          </mxGeometry>
        </mxCell>
      </root>
    </mxGraphModel>
  </diagram>
</mxfile>
